<svg xmlns="http://www.w3.org/2000/svg" version="1.1" xmlns:xlink="http://www.w3.org/1999/xlink" xmlns:svgjs="http://svgjs.dev/svgjs" viewBox="0 0 1920 1080"><rect width="1920" height="1080" fill="#331c73"></rect><g transform="matrix(0.5750000000000001,0.9959292143521044,-0.9959292143521044,0.5750000000000001,945.4914352055549,-725.864805272734)"><path d="M0,-1080C0.19722807837167147,-969.3984021360363,-4.096662823343401,-629.6259595765072,1.183368470230029,-416.3904128162178C6.463399763803459,-203.15486605592844,29.76006219247369,-17.05528416288311,31.68018776144058,199.41328056173612C33.60031333040747,415.8818452863553,12.498893865817967,666.9415467851356,12.704121884031359,882.4209755314977C12.90934990224475,1097.9004042778597,35.02890951805949,1279.360015628491,32.91155587072093,1492.2898530399082C30.79420222338237,1705.2196904513253,5.485259311786822,2048.714975506651,0,2160L 1920 2160 L 1920 -1080 Z" fill="url(&quot;#SvgjsLinearGradient1120&quot;)"></path><path d="M480,-1080C482.5022909928075,-1000.8106050982776,497.342122652075,-762.0424773654619,495.013745956845,-604.8636305896661C492.68536926161505,-447.68478381387024,467.93141002202304,-285.6983443388204,466.02973982862005,-136.92691934522506C464.12806963521706,11.844505648370273,478.6881507797479,134.46854067515034,483.603724796427,287.7649193719059C488.5192988131061,441.0612980686614,500.8967207328138,622.9384110363745,495.52318392869455,782.8513528353081C490.1496471245753,942.7642946342418,457.7097998928258,1089.1332373997107,451.3625039717116,1247.2425701655077C445.0152080505974,1405.3519029313047,452.6664923972945,1579.3811111243415,457.43940840200924,1731.5073494300902C462.21232440672395,1883.633587735839,476.2399014003349,2088.5845582383486,480,2160L 1920 2160 L 1920 -1080 Z" fill="url(&quot;#SvgjsLinearGradient1121&quot;)"></path><path d="M960,-1080C954.3753713695403,-973.2627428670925,926.3528075196913,-656.0957594945462,926.2522282172417,-439.57645720255476C926.1516489147922,-223.05715491056338,958.9439960618733,6.654053354894927,959.3965241853027,219.1158137519484C959.8490523087321,431.57757414900186,927.4406563853906,615.9002189054354,928.9673969578181,835.194105179766C930.4941375302456,1054.4879914540966,963.3848671128374,1314.078148927893,968.5569676198677,1534.879131397932C973.729068126898,1755.6801138679712,961.4261612699779,2055.813188566322,960,2160L 1920 2160 L 1920 -1080 Z" fill="url(&quot;#SvgjsLinearGradient1122&quot;)"></path><path d="M1440,-1080C1444.0720385394243,-940.3809089844835,1459.995817580357,-508.17384602219875,1464.4322312365462,-242.28545390690155C1468.8686448927353,23.602938208395614,1471.209090857424,249.2219628409693,1466.618481937135,515.3303526917829C1462.027873016846,781.4387425425964,1441.3249913710008,1080.253277313277,1436.8885777148116,1354.36488519798C1432.4521640586224,1628.4764930826827,1439.4814296191353,2025.72748086633,1440,2160L 1920 2160 L 1920 -1080 Z" fill="url(&quot;#SvgjsLinearGradient1123&quot;)"></path></g><defs><linearGradient x1="0.1" y1="0" x2="0" y2="1" id="SvgjsLinearGradient1120"><stop stop-color="#331c73" offset="0"></stop><stop stop-color="#241c73" offset="0"></stop></linearGradient><linearGradient x1="0.1" y1="0" x2="0" y2="1" id="SvgjsLinearGradient1121"><stop stop-color="#2b1861" offset="0"></stop><stop stop-color="#1f1861" offset="0.25"></stop></linearGradient><linearGradient x1="0.1" y1="0" x2="0" y2="1" id="SvgjsLinearGradient1122"><stop stop-color="#23134f" offset="0"></stop><stop stop-color="#19134f" offset="0.5"></stop></linearGradient><linearGradient x1="0.1" y1="0" x2="0" y2="1" id="SvgjsLinearGradient1123"><stop stop-color="#1b0f3d" offset="0"></stop><stop stop-color="#130f3d" offset="0.75"></stop></linearGradient></defs></svg>